<svg id="Capa_1" data-name="Capa 1" xmlns="http://www.w3.org/2000/svg" viewBox="0 0 513.08 507.24"><defs><style>.cls-1{fill:#cfe3f1;}.cls-1,.cls-10,.cls-11,.cls-12,.cls-13,.cls-14,.cls-15,.cls-16,.cls-17,.cls-18,.cls-19,.cls-2,.cls-21,.cls-23,.cls-25,.cls-26,.cls-27,.cls-3,.cls-4,.cls-5,.cls-6,.cls-7,.cls-8,.cls-9{fill-rule:evenodd;}.cls-2{fill:#7faaba;}.cls-3{fill:#94bbcc;}.cls-28,.cls-4{fill:#fff;}.cls-5{fill:#b9b9c1;}.cls-6{fill:#577f7f;}.cls-7{fill:#73a5a7;}.cls-8{fill:#383260;}.cls-9{fill:#643954;}.cls-10{fill:#443e71;}.cls-11{fill:#855169;}.cls-12{fill:#714360;}.cls-13,.cls-20{fill:#f5f5f4;}.cls-14{fill:#e8bfc5;}.cls-15{fill:#e6b5a3;}.cls-16{fill:#d2887a;}.cls-17,.cls-18,.cls-21,.cls-22,.cls-23,.cls-24,.cls-25{fill:none;stroke-linecap:round;stroke-linejoin:round;}.cls-17{stroke:#714360;}.cls-17,.cls-21,.cls-22,.cls-23,.cls-24,.cls-25{stroke-width:0.71px;}.cls-18{stroke:#d2887a;stroke-width:0.57px;}.cls-19{fill:#efd4c9;}.cls-21,.cls-22{stroke:#383260;}.cls-23,.cls-24{stroke:#855169;}.cls-25{stroke:#e8bfc5;}.cls-26,.cls-29{fill:#b2cbde;}.cls-27{fill:#ce6171;}</style></defs><path class="cls-1" d="M470.84,384.27c21.27,0,38.67,18.6,38.67,41.35h0c0,41.5,31.75,75.45,70.55,75.45H847.38c50.41,0,91.65-44.11,91.65-98h0c0-53.91-41.24-98-91.65-98h0c-10.12,0-18.39-8.86-18.39-19.67h0c0-10.82,8.27-19.67,18.39-19.67h48c24.59,0,44.71-21.52,44.71-47.82h0c0-26.27-20.07-47.77-44.62-47.82H851.79c-21.26,0-38.66-18.61-38.66-41.35h0c0-41.5-31.75-75.45-70.55-75.45H518.8c-50.41,0-91.65,44.1-91.65,98h0c0,53.91,41.24,98,91.65,98h0c10.11,0,18.39,8.85,18.39,19.67h0c0,10.82-8.28,19.67-18.39,19.67h-48C412.34,288.63,412.34,384.27,470.84,384.27Z" transform="translate(-426.97 -39)"/><path class="cls-2" d="M886.92,353.1c-7.17-30-35.37-14.35-47.92,10.85-11.9,23.9-39.33,114-62.78,144.66l7.52,4.53C827.55,482,896.09,391.51,886.92,353.1Z" transform="translate(-426.97 -39)"/><path class="cls-3" d="M781,511.48c58-55.73,90.62-161.32,90.73-161.68a1.24,1.24,0,1,0-2.37-.74c-.11.36-32.81,106.07-90.53,161.11Z" transform="translate(-426.97 -39)"/><path class="cls-4" d="M816.21,367.15c-13.29-22.09-31.79-2.49-35.42,20.76-3,19.26-2.69,81.79-9.86,117.52l9.92,6C806.15,471.29,831.9,393.22,816.21,367.15Z" transform="translate(-426.97 -39)"/><path class="cls-5" d="M777.23,509.22c26.62-58.83,26-140.55,26-140.85a1,1,0,0,0-2.08,0c0,.29.59,81.49-25.71,139.78Z" transform="translate(-426.97 -39)"/><path class="cls-6" d="M883,442.88c23.89,3.13,14,26.3-4.53,38.1-12.55,8-50.62,24.86-79.38,41.4l-15.75-9.48C811.35,478.55,858.31,439.65,883,442.88Z" transform="translate(-426.97 -39)"/><path class="cls-7" d="M789,516.29c40.85-37.46,97.61-61.76,97.84-61.86a1,1,0,0,1,1.27.51,1,1,0,0,1-.5,1.27c-.23.1-56.4,24.15-96.89,61.11Z" transform="translate(-426.97 -39)"/><path class="cls-2" d="M472.54,381c6-25.18,29.67-12,40.2,9.11,10,20,33,95.59,52.67,121.36l-6.31,3.8C522.35,489.11,464.84,413.17,472.54,381Z" transform="translate(-426.97 -39)"/><path class="cls-3" d="M561.42,513.82c-48.62-46.75-76-135.34-76.11-135.64a1,1,0,0,1,.68-1.3,1,1,0,0,1,1.31.68c.09.3,27.52,89,75.95,135.16Z" transform="translate(-426.97 -39)"/><path class="cls-4" d="M531.86,392.74c11.15-18.53,26.67-2.09,29.72,17.41,2.52,16.16,2.25,68.62,8.26,98.6l-8.32,5C540.3,480.1,518.69,414.61,531.86,392.74Z" transform="translate(-426.97 -39)"/><path class="cls-5" d="M564.56,511.93C542.23,462.57,542.73,394,542.73,393.76a.86.86,0,0,1,.87-.86.87.87,0,0,1,.87.87c0,.25-.5,68.36,21.57,117.27Z" transform="translate(-426.97 -39)"/><path class="cls-6" d="M475.83,456.27c-20.05,2.62-11.77,22.07,3.8,32,10.53,6.69,42.47,20.85,66.59,34.73l13.21-8C535.93,486.2,496.54,453.56,475.83,456.27Z" transform="translate(-426.97 -39)"/><path class="cls-7" d="M554.72,517.85c-34.27-31.42-81.89-51.8-82.08-51.89a.82.82,0,0,0-.65,1.5c.19.08,47.31,20.25,81.29,51.26Z" transform="translate(-426.97 -39)"/><path class="cls-8" d="M468.19,498.07H898.82a10.72,10.72,0,0,1,10.7,10.7h0a10.72,10.72,0,0,1-10.7,10.7H862.7a6,6,0,0,0-5.94,5.95h0a6,6,0,0,0,5.94,6h13.22a7.46,7.46,0,0,1,7.43,7.43h0a7.46,7.46,0,0,1-7.43,7.44H492.27a7.46,7.46,0,0,1-7.43-7.44h0a7.45,7.45,0,0,1,7.43-7.43h10.41a6,6,0,0,0,5.95-6h0a6,6,0,0,0-5.95-5.95H468.19a10.72,10.72,0,0,1-10.7-10.7h0a10.73,10.73,0,0,1,10.7-10.7Zm5.57,48.17a7.16,7.16,0,0,0,7.14-7.14v-.6a7.16,7.16,0,0,0-7.14-7.13h0a7.15,7.15,0,0,0-7.13,7.13v.6a7.16,7.16,0,0,0,7.13,7.14Z" transform="translate(-426.97 -39)"/><path class="cls-8" d="M645.3,94.24c-.59,11-2.64,15.72-12.55,18.73-15.76,4.77-15.27,16-8.75,29.81,1.28,2.72,3.63,6.93-.27,13.61-7.43,12.72-8.07,31.25,19.25,34.33s26.94-23.86,26.94-23.86l1.34-6s18.28-6.15,11.16-27.9,3.66-8.46,3.66-8.46l2.47,5.94s21.78-5.22,21.77-18.07C710.29,55.25,647.39,55.11,645.3,94.24Z" transform="translate(-426.97 -39)"/><path class="cls-9" d="M692.31,123.43s-10,8.14-14.74,15.25-17.08,30.58-17.08,30.58l3.65,12.89,7.12,1.73L689,166.57Z" transform="translate(-426.97 -39)"/><path class="cls-10" d="M687.67,252.72s-4.17,17.57-4.17,33.73,13.09,207.42,13.09,207.42,0,1.68,1.44,1.68,11.06.34,16.21,0a2.15,2.15,0,0,0,1.15-1.78c.2-1.39,4.14-203.28,4.14-203.28l44.26,203s.53,2,1.73,2h18.13s1.5,0,1.54-2.31-13.85-125.45-14.62-137S766.14,261,757,248,687.67,252.72,687.67,252.72Z" transform="translate(-426.97 -39)"/><path class="cls-8" d="M747.92,420.71l15.87,72.77s.53,2,1.73,2h5.8Z" transform="translate(-426.97 -39)"/><path class="cls-4" d="M688,247.74s-1.13,3.55-.55,4.8,36.7,7,69.61-4.57c0,0,1.55-1.83.44-6.3s-51-3.9-51-3.9Z" transform="translate(-426.97 -39)"/><path class="cls-11" d="M688,247.74c27.41,6.64,69.5-6.07,69.5-6.07s2.69-5.68,1.92-7.51S755,219.83,755,216.75s1.92-3.66,1.15-5.58-3.84-7.12-3.84-9.81S755,163.65,755,163.65c-11.93-15.4-1.92-46.95-1.92-46.95a7.82,7.82,0,0,0-3.18-1.54c-2.31-.68-20.38-3.37-20.38-3.37l-24.1,4.69-13.15,7c-1.06.58-6.73,21.36-7.31,31.37s2.69,45.21,2.69,47.52-2.11,4.43-1.73,5.58,1.16,2.31,1.54,3.66-1.34,18.3-2.5,25.59c-.49,3.1-2.75,9.12,2.62,10.51Z" transform="translate(-426.97 -39)"/><path class="cls-12" d="M687.09,219.44c-.36,3.86-.86,8.5-1.35,12.44l40.48-15.38,1.48-9.73L689,212.35Z" transform="translate(-426.97 -39)"/><polygon class="cls-12" points="294.06 114.28 298.52 113.43 296.08 118.95 294.86 130.09 287.28 159.02 277.27 163.83 294.06 114.28"/><path class="cls-13" d="M640.65,222.71s-1.28,3.55-6,7.74c-71.6,64-41.24,176-86.26,248.67,0,0-.57,1.73.19,2.62s3.52,5.44,12.64,7c0,0-1,5.84-2.24,10.07a1.74,1.74,0,0,0,.47,1.88c.9.64,8.43,4.28,19,4.62l-.47,3a1.22,1.22,0,0,0,1,1.4c1.21.21,19.8,7.06,57.61,2.57a2.06,2.06,0,0,0,1-1.36,2.22,2.22,0,0,0,1.12,1.77c1.07.59,21.27,6.79,55.66-.9a1.57,1.57,0,0,0,.91-1.48,52,52,0,0,0-.76-5.88s10.79-.1,19.21-4.3a2.41,2.41,0,0,0,1.17-2,14.91,14.91,0,0,0-.29-2.94s7.93-1,11.78-3a1.91,1.91,0,0,0,.5-1.61c-.11-1.07-10.83-7.75-15.43-116.71S676.08,251.28,676.77,224l-1.88-2.94-29.95-.22Z" transform="translate(-426.97 -39)"/><path class="cls-14" d="M678,234.35A36.74,36.74,0,0,1,676.77,224l-1.88-2.94L658.53,221l-5.67,6.41Z" transform="translate(-426.97 -39)"/><path class="cls-14" d="M641.26,217.61s-.82,3.66-.53,5.1,13.57,4.91,24.25,4.52,10.24-2,10.38-2.65,0-4.66,0-4.66Z" transform="translate(-426.97 -39)"/><path class="cls-13" d="M648.06,134.37c-1.83,4.06-16.13,16.86-15.75,29.17s6.16,33.87,6.74,36.56-.29,13.37,0,14.82,2.21,2.69,2.21,2.69c16.16,5.19,34.15,2.31,34.15,2.31a3.28,3.28,0,0,0,1.35-3c-.1-2.12.77-8.09,5.58-18.47s5.77-18.28,3.39-22.87-17.92-27.07-17.92-27.07-2.87-3.52-1.81-5.88Z" transform="translate(-426.97 -39)"/><path class="cls-14" d="M682.15,198.87l.19-.4a47.38,47.38,0,0,0,4.53-14.75s-2.93,4.61-12.9-.95-23.72.14-23.72.14l-7-1L660,216.75s14.5-5,14.5-6.13C674.5,210.1,678.15,204.67,682.15,198.87Z" transform="translate(-426.97 -39)"/><path class="cls-15" d="M648.06,134.37c-1.27,2.83-8.61,9.91-12.81,18.11,1,.4,2.46.13,4.66-1.55,6.83-5.19,12.7-5.67,17.41-.48s11.69,8.32,15.51,5.41c-2.84-4.18-5-7.33-5-7.33s-2.87-3.52-1.81-5.88Z" transform="translate(-426.97 -39)"/><path class="cls-16" d="M667.36,147.91c-.76-1.11-2.14-3.5-1.36-5.26l-11.72-5.41Z" transform="translate(-426.97 -39)"/><path class="cls-17" d="M714,124.42s-4.81,31.75-4.81,37.33-1.54,23.66-1,42.14-1.92,35.21-1.92,37.9a43.58,43.58,0,0,0,1.35,7.86" transform="translate(-426.97 -39)"/><path class="cls-15" d="M708.75,175.62a84.19,84.19,0,0,0,4.14-7.74c.17-.37.19-7.45.31-8.33s3.45-6.35,3.8-6.83a30.18,30.18,0,0,1,3.9-2.39c.25-.17.76.29.76.29s1.87-1.08,2-1.18,1,.18,1.12,1.15c0,0,.86.36,1.05.84s-.45,1.46-3,3.63l-1.59,4.51s2.6-3.24,2.85-3.51,2.22-2,2.35-2.15.89.65.31,1.37-1.51,1.88-1.51,1.88a40.71,40.71,0,0,0-1.59,4.14c0,.37,0,5-1.49,7.37-.28.45-1.13,1-1.73,1.72-1.73,2.14-4.59,10.43-4.59,10.43Z" transform="translate(-426.97 -39)"/><path class="cls-18" d="M721.66,150.62s-2.69,1.78-3.08,2.09a3.41,3.41,0,0,0-.75.86,46.8,46.8,0,0,0-2.08,4.57" transform="translate(-426.97 -39)"/><path class="cls-18" d="M724.77,150.59l-3.29,2.46a2.83,2.83,0,0,0-.79.88c-.22.45-2,4.54-2,4.54" transform="translate(-426.97 -39)"/><path class="cls-15" d="M679.55,224.05s-29.44-31-34.83-39.64-8.66-19.43-5.19-27.13,12.12-6.54,12.12-6.54,3.08.19,7.12,6.73,30.78,48.68,30.78,48.68l23.1-36.72,6.7,2.54-17.72,45.24C697.84,226.88,689,234.07,679.55,224.05Z" transform="translate(-426.97 -39)"/><path class="cls-15" d="M668.82,112.27h0a9.92,9.92,0,0,0-13.07,5l-7.18,16a9.91,9.91,0,0,0,5,13.06h0a9.9,9.9,0,0,0,13.06-5l7.19-16A9.91,9.91,0,0,0,668.82,112.27Z" transform="translate(-426.97 -39)"/><path class="cls-16" d="M652.7,124.05l-3.91,8.71,15,12.23a9.73,9.73,0,0,0,2.83-3.66l6.58-14.65c-7-2.65-17.39-5.91-17.39-5.91Z" transform="translate(-426.97 -39)"/><path class="cls-15" d="M710,86.22h0a9.9,9.9,0,0,0-7.15,12l4.3,17a9.92,9.92,0,0,0,12,7.16h0a9.93,9.93,0,0,0,7.15-12l-4.31-17A9.9,9.9,0,0,0,710,86.22Z" transform="translate(-426.97 -39)"/><path class="cls-16" d="M703.73,101.76l3.41,13.46a9.76,9.76,0,0,0,2.08,4l15.62-14.62-.6-2.36L707.12,99Z" transform="translate(-426.97 -39)"/><path class="cls-15" d="M682.13,80.35A21.38,21.38,0,0,0,655.6,94.68l-4.47,15-1.08,3.6a21.58,21.58,0,0,0-.84,4.64c1.6,22.74,26.06,30,39.86,11.9a21.8,21.8,0,0,0,1.85-4.34l1.07-3.6,4.47-15A21.37,21.37,0,0,0,682.13,80.35Z" transform="translate(-426.97 -39)"/><path class="cls-16" d="M693.21,117.77l3.25-10.89c.16-.52.29-1,.4-1.55-3.67-6-8.64-13.09-10.37-13.27-2.86-.29-23.06-1.55-24.89-1.06S656,101.58,656,101.58s17.75,5.85,25.14-2.9l1.61-.56S684,112.11,693.21,117.77Z" transform="translate(-426.97 -39)"/><path class="cls-16" d="M683,124.93a2.8,2.8,0,1,0,1.82,3.52A2.81,2.81,0,0,0,683,124.93Z" transform="translate(-426.97 -39)"/><path class="cls-16" d="M660,117.59a2.81,2.81,0,1,0,1.82,3.53A2.81,2.81,0,0,0,660,117.59Z" transform="translate(-426.97 -39)"/><path class="cls-8" d="M661.71,107.76a.78.78,0,0,1-.27-1.54,7.09,7.09,0,0,1,6.39,1.94.78.78,0,1,1-1.15,1A5.52,5.52,0,0,0,661.71,107.76Z" transform="translate(-426.97 -39)"/><path class="cls-8" d="M685.15,122a2,2,0,0,0-1.31-2.43,2,2,0,0,0-1.49.16,2,2,0,0,0-.94,1.16.78.78,0,0,1-1.5-.45,3.51,3.51,0,0,1,4.38-2.36,3.51,3.51,0,0,1,2.49,3,.57.57,0,0,0,.48,0,.22.22,0,0,1,.29.13.23.23,0,0,1-.13.29,1,1,0,0,1-.63,0v0a1.08,1.08,0,0,0,.67.13.22.22,0,0,1,.26.18.23.23,0,0,1-.19.26,1.47,1.47,0,0,1-.8-.1h0a1.39,1.39,0,0,0,.65.29.22.22,0,0,1-.08.44,1.64,1.64,0,0,1-.69-.27.77.77,0,0,1-.93.42A.78.78,0,0,1,685.15,122Z" transform="translate(-426.97 -39)"/><path class="cls-8" d="M694.93,119.23s-11.93-8.85-10.2-21.74c0,0,.12-.55-.27-.6s-2.25,4.59-1.17,10c0,0,.28.87-.2,1.06s-2.93-4.47-1.78-10.25c0,0-8.51,7.59-22.32,2.6a23.75,23.75,0,0,0-5.38,15.78c.19,9.81,5.77,24.63-14.24,23.67S644,117.65,644,117.65s12.69-35,14-35.79,19.79-7,19.79-7l13.11,4.7,11,18.28Z" transform="translate(-426.97 -39)"/><path class="cls-8" d="M687.78,115.54a5.53,5.53,0,0,0-5-1.51.78.78,0,0,1-1-.56.79.79,0,0,1,.56-1,7.11,7.11,0,0,1,6.41,1.88.79.79,0,0,1,0,1.1A.78.78,0,0,1,687.78,115.54Z" transform="translate(-426.97 -39)"/><path class="cls-10" d="M696,78.58a13.07,13.07,0,0,0-1.86-4.78,34.26,34.26,0,0,0-7.91-4.51c-3.08,8.7-13.64,20.63-27.6,14.24a33.38,33.38,0,0,1-8.09-5.12,27.31,27.31,0,0,0-2.33,3.93c4,4.1,9.71,7.54,18,9C682.5,94.32,691.39,86.18,696,78.58Z" transform="translate(-426.97 -39)"/><path class="cls-8" d="M660.36,114.6a2,2,0,0,1,2.43-1.31,2,2,0,0,1,1.16.94,1.93,1.93,0,0,1,.15,1.49.78.78,0,1,0,1.5.44,3.46,3.46,0,0,0-.28-2.67,3.5,3.5,0,0,0-4.76-1.42,3.36,3.36,0,0,0-1.08.9.63.63,0,0,1-.43-.22.22.22,0,0,0-.36.26,1,1,0,0,0,.52.36h0a1,1,0,0,1-.63-.26.23.23,0,0,0-.32,0,.22.22,0,0,0,0,.31,1.42,1.42,0,0,0,.72.35h0a1.51,1.51,0,0,1-.7-.11.22.22,0,0,0-.29.11.22.22,0,0,0,.12.3,1.79,1.79,0,0,0,.72.15.78.78,0,0,0,1.52.34Z" transform="translate(-426.97 -39)"/><path class="cls-19" d="M675.27,121.92s1,3,.65,4.17-2.18,0-2.36-.72S674.24,121.11,675.27,121.92Z" transform="translate(-426.97 -39)"/><path class="cls-16" d="M664.53,127a.55.55,0,0,1,0-.78.54.54,0,0,1,.78,0s5.41,4.69,10.13,3.08a.55.55,0,0,1,.7.34.56.56,0,0,1-.34.71C670.42,132.13,664.55,127,664.53,127Z" transform="translate(-426.97 -39)"/><path class="cls-16" d="M730.21,75.37h.48a6.34,6.34,0,1,1-5,2.07c.13,1.88.78,4.12,3.17,4l-.62-3.61A2.18,2.18,0,0,1,730.21,75.37Z" transform="translate(-426.97 -39)"/><path class="cls-15" d="M701.75,48.65a21.76,21.76,0,0,1,24.78,18.14L729,82.52l.58,3.78a21.67,21.67,0,0,1,.2,4.81c-4.76,22.72-30.46,26.69-41.86,6.47A21.36,21.36,0,0,1,686.63,93L686,89.16l-2.43-15.73A21.77,21.77,0,0,1,701.75,48.65Z" transform="translate(-426.97 -39)"/><path class="cls-16" d="M704.2,48.41a21.65,21.65,0,0,1,13.95,4.4l1.85,12-1.73-1.35L710,70.09l-8.61,1.06L684.6,79.84l-1-6.41a21.65,21.65,0,0,1,4.64-17C693.68,53.65,699.37,50.81,704.2,48.41Z" transform="translate(-426.97 -39)"/><path class="cls-16" d="M694.72,93.51a2.86,2.86,0,1,1-2.33,3.31A2.85,2.85,0,0,1,694.72,93.51Z" transform="translate(-426.97 -39)"/><path class="cls-16" d="M718.92,89.3a2.86,2.86,0,1,1-2.32,3.3A2.85,2.85,0,0,1,718.92,89.3Z" transform="translate(-426.97 -39)"/><path class="cls-8" d="M718.55,79.14a.79.79,0,0,0,.49-1.51,7.21,7.21,0,0,0-6.72,1.06.79.79,0,1,0,1,1.22A5.62,5.62,0,0,1,718.55,79.14Z" transform="translate(-426.97 -39)"/><path class="cls-8" d="M691.17,83.37a5.61,5.61,0,0,1,5.21-.83.81.81,0,0,0,1-.44.79.79,0,0,0-.44-1,7.23,7.23,0,0,0-6.73,1,.79.79,0,0,0,.92,1.29Z" transform="translate(-426.97 -39)"/><path class="cls-19" d="M702.9,91.55s-1.39,2.93-1.23,4.11,2.2.31,2.48-.4S704.06,90.87,702.9,91.55Z" transform="translate(-426.97 -39)"/><path class="cls-16" d="M713,98.18a.57.57,0,1,0-.62-1s-6.1,4-10.64,1.7a.57.57,0,0,0-.51,1C706.39,102.52,713,98.19,713,98.18Z" transform="translate(-426.97 -39)"/><path class="cls-8" d="M715.1,86.86a.78.78,0,0,1-.63.91.77.77,0,0,1-.91-.63,3.51,3.51,0,0,1,2.81-4.08,3.52,3.52,0,0,1,4.08,2.82.8.8,0,0,1-.64.92.78.78,0,0,1-.91-.64,2,2,0,0,0-.8-1.24,2,2,0,0,0-1.45-.31,2,2,0,0,0-1.24.8A2,2,0,0,0,715.1,86.86Z" transform="translate(-426.97 -39)"/><path class="cls-8" d="M693,90.28a.79.79,0,1,1-1.55.28,3.49,3.49,0,0,1,.56-2.62,3.53,3.53,0,0,1,2.26-1.45,3.49,3.49,0,0,1,2.62.56,3.53,3.53,0,0,1,1.45,2.26.78.78,0,0,1-.63.91.79.79,0,0,1-.92-.63,1.93,1.93,0,1,0-3.79.69Z" transform="translate(-426.97 -39)"/><path class="cls-13" d="M726.2,110l3.36,1.81-8.72,14a1.05,1.05,0,0,1-1,.45c-.62-.07-5.43-3.87-5.43-3.87Z" transform="translate(-426.97 -39)"/><path class="cls-13" d="M714.44,122.41l-7.3-7.19-1.68,1.26,3.54,9.09a.8.8,0,0,0,1,.26A46.46,46.46,0,0,0,714.44,122.41Z" transform="translate(-426.97 -39)"/><path class="cls-8" d="M728.91,82.15s-4.48-1.45-4.19-7.22c0,0-4.43-3-6.45-5.68s-.67-8.17-.67-8.17C715.17,63,711.19,71.24,706,72.32c-3.28.66-6.93-1.49-4.37-5.13,0,0-9.91,11.45-19.53,9.33-12.08-2.66-15.48-19.77-7-15.2-8.81-11.46,6-25.61,16.23-14,0,0,15.42-8.31,19.66-8.31s11.54,3.27,12.7,10.58c0,0,7.11,1.16,8.46,3.66s-.23,22.31-.23,22.31A6.12,6.12,0,0,0,728.91,82.15Z" transform="translate(-426.97 -39)"/><path class="cls-10" d="M672.5,52a11,11,0,0,1,8.09-8.8c2.23,7.49,11.5,18.72,23.92,13,8.84-4.05,12.41-10.22,13.85-14.75A13.63,13.63,0,0,1,720,42.84c-1.75,7.31-6.92,17.42-22,20.16C684.09,65.51,676.48,58.53,672.5,52Z" transform="translate(-426.97 -39)"/><path class="cls-11" d="M767.37,492.8s5.81-7.23,12.91-1.48a10.51,10.51,0,0,1,5.33,5.23c1.45,3.66,4.2,5.31,4.68,9.32s-.64,7.14-5.73,7.14h-8.23c-3.63,0-9,.61-10.9-4.27s0-9.32-.64-11.84S767.37,492.8,767.37,492.8Z" transform="translate(-426.97 -39)"/><path class="cls-9" d="M767.37,492.8s5.81-7.23,12.91-1.48a10.08,10.08,0,0,1,1.71.95c.41,3.17.75,6.55.44,7.41-.61,1.72-9.79,1.35-11.08.74-1-.46-3.17-5.14-4.22-7.49Z" transform="translate(-426.97 -39)"/><rect class="cls-20" x="337.28" y="468.49" width="26.93" height="5.52" rx="1.43"/><path class="cls-15" d="M660.06,212.34s-9.11-1.85-11.68-2.87-2.51,1.28-1.44,2.61a17.39,17.39,0,0,0,4.1,3c.55.33.23.66-1.39,1.18s-7.4,1.64-8.39,1.33-1.75-2.11-2.16-2.48c0,0-1.48,2.18-.9,3.16s2.26,2.64,3.62,2.85c0,0-.23,2.22.35,2.74a7.47,7.47,0,0,0,1.94,1,4.3,4.3,0,0,0,1,1.6,7.45,7.45,0,0,0,1.4.85s1.22,1.14,1.75,1.51,5,.55,6.26-.66c.19-.19,5-1.73,7.28-3.34a6.87,6.87,0,0,0,1.59-1.95c1.93-3.93-1.69-10.09-1.69-10.09Z" transform="translate(-426.97 -39)"/><path class="cls-9" d="M753.12,116.7c16,8.58,15,23.21,9.42,41.09-3.48,11.12-11.53,28.07-23.24,49.67a28,28,0,0,1-13.08,9c-8.66,2.89-64,10.75-64,10.75s-.82,0-.87-.62-1.77-10.18-1.58-15.09c0,0,0-1.35,2-2.12s55.87-15.57,55.87-15.57,2.5-4.43,6.35-3.66L747.67,123S750,115.17,753.12,116.7Z" transform="translate(-426.97 -39)"/><path class="cls-8" d="M714.8,123.6s7.93-5,8.77-5.34,2.74,3.48,2.94,6-4.37,6.55-5.24,7.24-4.07-2.35-6.83-5.31Z" transform="translate(-426.97 -39)"/><path class="cls-8" d="M713.47,123.58l-3.65-3.1a1,1,0,0,0-1.19.3,37.47,37.47,0,0,0-1.91,3.54,3.21,3.21,0,0,0-.37,1.78c.17.76,1.4,4.12,1.4,4.12a1.49,1.49,0,0,0,1.45.51c.79-.26,4.36-4.65,4.36-4.65Z" transform="translate(-426.97 -39)"/><path class="cls-8" d="M714.36,122.35h0a1.43,1.43,0,0,1,1.42,1.42V126a1.43,1.43,0,0,1-1.42,1.42h0a1.43,1.43,0,0,1-1.42-1.42v-2.22A1.43,1.43,0,0,1,714.36,122.35Z" transform="translate(-426.97 -39)"/><path class="cls-21" d="M712.38,255.06c.77,7.45,7.15,35.43,7.15,35.43" transform="translate(-426.97 -39)"/><path class="cls-21" d="M706.33,255S711.9,278,713,280s5.09,3.85,5.09,3.85" transform="translate(-426.97 -39)"/><path class="cls-21" d="M693.65,253.94s-1.72,5-4.36,5.75" transform="translate(-426.97 -39)"/><path class="cls-21" d="M739.49,252.59a17.08,17.08,0,0,0,18.1,9.41" transform="translate(-426.97 -39)"/><path class="cls-21" d="M753.7,249.07s5.72,17,6.78,27,11.16,105,11.16,105" transform="translate(-426.97 -39)"/><line class="cls-22" x1="295.8" y1="251.95" x2="283.68" y2="250.41"/><path class="cls-8" d="M715.84,293.45c.17,2.37-3.61,27.79-6.65,47.73,1.06,9.81,1.88,20.64,2.38,32.61,1.29,30.45,3,52.9,4.92,69.49,1.22-59.39,3-150.27,3-152.74l-5.46-.69A5.28,5.28,0,0,1,715.84,293.45Z" transform="translate(-426.97 -39)"/><path class="cls-17" d="M752.35,201.36s-1.88,7.34-12.08,10.7" transform="translate(-426.97 -39)"/><path class="cls-17" d="M755.43,214.55s-3.42,4.34-13.52,4.83" transform="translate(-426.97 -39)"/><path class="cls-17" d="M714.39,241.41s17.51-3.08,27.32-8.66" transform="translate(-426.97 -39)"/><path class="cls-23" d="M717.65,193.85s5.4-.16,7.23,5.9" transform="translate(-426.97 -39)"/><line class="cls-24" x1="297.04" y1="151.19" x2="300.56" y2="151.9"/><path class="cls-25" d="M644,223.51c-8.17,34.34-38.46,41.29-48.87,128.34" transform="translate(-426.97 -39)"/><path class="cls-25" d="M561.26,488.73s22.33-54.91,30.8-120.33" transform="translate(-426.97 -39)"/><path class="cls-25" d="M578.51,505.3s22.78-83.8,32.79-154.6,21.55-87,21.55-87" transform="translate(-426.97 -39)"/><path class="cls-25" d="M637.7,510.89s5.15-130,10.54-183.09" transform="translate(-426.97 -39)"/><path class="cls-25" d="M658.26,226.67s-6.56,50.72-10,76.89" transform="translate(-426.97 -39)"/><path class="cls-25" d="M694.63,504.4a770.53,770.53,0,0,1-8.29-108.87c-.07-58.15-11.16-138.92-15.78-154.7" transform="translate(-426.97 -39)"/><path class="cls-25" d="M714.72,495.12s-11.07-32.44-14.14-118.64" transform="translate(-426.97 -39)"/><path class="cls-25" d="M639.05,200.1s2.26,4.55,11,6.38" transform="translate(-426.97 -39)"/><path class="cls-26" d="M508.85,108.33h51a6.76,6.76,0,0,1,6.74,6.74v47.5a.76.76,0,0,1-1.29.53l-11.47-11.48h-45a6.75,6.75,0,0,1-6.73-6.73V115.07A6.75,6.75,0,0,1,508.85,108.33Z" transform="translate(-426.97 -39)"/><path class="cls-4" d="M911.88,355.5a1.15,1.15,0,0,1,2.3,0v5.15a1.15,1.15,0,0,1-2.3,0V355.5Zm-7.81,4.18a1.15,1.15,0,0,1,1.62-1.62l3.65,3.65a1.16,1.16,0,0,1,0,1.62,1.14,1.14,0,0,1-1.62,0l-3.65-3.65Zm-2.57,8.49a1.15,1.15,0,0,1,0-2.3h5.16a1.15,1.15,0,0,1,0,2.3Zm4.19,7.81a1.15,1.15,0,0,1-1.62-1.62l3.65-3.65a1.15,1.15,0,0,1,1.62,1.62L905.69,376Zm8.49,2.56a1.15,1.15,0,0,1-2.3,0v-5.15a1.15,1.15,0,0,1,2.3,0v5.15Zm7.81-4.18a1.15,1.15,0,1,1-1.62,1.62l-3.65-3.65a1.14,1.14,0,0,1,0-1.62,1.16,1.16,0,0,1,1.62,0l3.65,3.65Zm2.56-8.49a1.15,1.15,0,1,1,0,2.3H919.4a1.15,1.15,0,1,1,0-2.3Zm-4.18-7.81a1.15,1.15,0,1,1,1.62,1.62l-3.65,3.65a1.15,1.15,0,1,1-1.62-1.62Z" transform="translate(-426.97 -39)"/><path class="cls-26" d="M897.24,243.1a26.78,26.78,0,1,0-26.78-26.78A26.83,26.83,0,0,0,897.24,243.1Z" transform="translate(-426.97 -39)"/><path class="cls-26" d="M792,185.58a5.39,5.39,0,0,1,1.07.11l.13,0V171.38a1.8,1.8,0,0,1,1.55-1.75l19.83-2.31h.19a1.5,1.5,0,0,1,1,.38,1.55,1.55,0,0,1,.5,1,1.15,1.15,0,0,1,0,.18v20.39a5.61,5.61,0,1,1-5.61-5.61,5.29,5.29,0,0,1,1.06.11l.13,0v-5.93l-14.25,1.66v11.71a5.61,5.61,0,1,1-5.62-5.61Z" transform="translate(-426.97 -39)"/><path class="cls-4" d="M509.57,198a6.14,6.14,0,0,1,1.06.1l.13,0V183.78a1.76,1.76,0,0,1,.46-1.16,1.74,1.74,0,0,1,1.1-.59l19.83-2.31.18,0a1.54,1.54,0,0,1,1,.39,1.49,1.49,0,0,1,.49,1,1.37,1.37,0,0,1,0,.19v20.39a5.61,5.61,0,1,1-5.61-5.61,6.34,6.34,0,0,1,1.06.1l.13,0v-5.93l-14.26,1.66v11.71a5.61,5.61,0,1,1-5.61-5.61Z" transform="translate(-426.97 -39)"/><path class="cls-4" d="M793.06,271.73a5.36,5.36,0,0,1,1.06.1l.13,0V257.53a1.77,1.77,0,0,1,1.56-1.75l8.7-1h.18a1.49,1.49,0,0,1,1,.39,1.47,1.47,0,0,1,.49,1,1.37,1.37,0,0,1,0,.19v6.34A2.06,2.06,0,0,1,804.5,265l-2.7.32-3.13.36v11.71a5.61,5.61,0,1,1-5.61-5.61Z" transform="translate(-426.97 -39)"/><path class="cls-26" d="M568,281.13a5.37,5.37,0,0,1,1.06.11l.13,0V266.93a1.79,1.79,0,0,1,1.56-1.75l8.7-1h.18a1.54,1.54,0,0,1,1,.39,1.49,1.49,0,0,1,.49,1,1.28,1.28,0,0,1,0,.19V272c0,2.18-1.71,2.33-1.71,2.33l-2.7.31-3.13.37v11.7a5.61,5.61,0,1,1-5.61-5.61Z" transform="translate(-426.97 -39)"/><path class="cls-27" d="M512.89,108.33h51a6.75,6.75,0,0,1,6.73,6.74v47.5a.74.74,0,0,1-.47.69.72.72,0,0,1-.81-.16l-11.48-11.48h-45a6.75,6.75,0,0,1-6.73-6.73V115.07A6.75,6.75,0,0,1,512.89,108.33Z" transform="translate(-426.97 -39)"/><path class="cls-4" d="M523.89,118.2h0a9.19,9.19,0,0,1,13,0l1.55,1.56,1.55-1.56a9.19,9.19,0,0,1,12.95,0h0a9.17,9.17,0,0,1,0,13l-1.55,1.56-13,12.95-12.95-12.95-1.55-1.56A9.17,9.17,0,0,1,523.89,118.2Z" transform="translate(-426.97 -39)"/><circle class="cls-28" cx="466.35" cy="174.66" r="26.78"/><path class="cls-27" d="M879.82,202.13h0a8.55,8.55,0,0,1,12,0l1.45,1.45,1.44-1.45a8.55,8.55,0,0,1,12,0h0a8.55,8.55,0,0,1,0,12.05l-1.44,1.45-12,12-12.05-12-1.45-1.45A8.55,8.55,0,0,1,879.82,202.13Z" transform="translate(-426.97 -39)"/><path class="cls-4" d="M532.89,315.2a1.15,1.15,0,0,1,2.29,0v5.16a1.15,1.15,0,0,1-2.29,0V315.2Zm-7.82,4.19a1.15,1.15,0,1,1,1.63-1.62l3.64,3.64a1.15,1.15,0,0,1-1.62,1.62l-3.65-3.64Zm-2.56,8.48a1.15,1.15,0,1,1,0-2.29h5.16a1.15,1.15,0,0,1,0,2.29Zm4.19,7.82a1.15,1.15,0,1,1-1.63-1.63l3.65-3.64a1.15,1.15,0,0,1,1.62,1.62l-3.64,3.65Zm8.48,2.56a1.15,1.15,0,1,1-2.29,0V333.1a1.15,1.15,0,1,1,2.29,0v5.15Zm7.82-4.19a1.15,1.15,0,0,1-1.63,1.63L537.73,332a1.15,1.15,0,1,1,1.62-1.62l3.65,3.64Zm2.56-8.48a1.15,1.15,0,1,1,0,2.29H540.4a1.15,1.15,0,0,1,0-2.29Zm-4.19-7.81a1.15,1.15,0,0,1,1.63,1.62L539.35,323a1.15,1.15,0,1,1-1.62-1.62Z" transform="translate(-426.97 -39)"/><path class="cls-4" d="M773.06,79.88a1.09,1.09,0,0,1,2.17,0v4.87a1.09,1.09,0,1,1-2.17,0V79.88Zm-7.38,4a1.1,1.1,0,0,1,0-1.54,1.09,1.09,0,0,1,1.53,0l3.45,3.45a1.09,1.09,0,0,1-1.54,1.53l-3.44-3.44Zm-2.43,8a1.09,1.09,0,0,1,0-2.17h4.88a1.09,1.09,0,0,1,0,2.17Zm4,7.38a1.07,1.07,0,0,1-1.53,0,1.09,1.09,0,0,1,0-1.53l3.44-3.44a1.09,1.09,0,1,1,1.54,1.53l-3.45,3.44Zm8,2.43a1.09,1.09,0,0,1-2.17,0V96.8a1.09,1.09,0,1,1,2.17,0v4.87Zm7.39-4a1.09,1.09,0,0,1,0,1.53,1.07,1.07,0,0,1-1.53,0l-3.45-3.44a1.09,1.09,0,0,1,0-1.53,1.07,1.07,0,0,1,1.53,0l3.45,3.44Zm2.42-8a1.09,1.09,0,1,1,0,2.17h-4.87a1.09,1.09,0,0,1,0-2.17Zm-3.95-7.39a1.09,1.09,0,0,1,1.53,0,1.1,1.1,0,0,1,0,1.54l-3.45,3.44a1.07,1.07,0,0,1-1.53,0,1.09,1.09,0,0,1,0-1.53Z" transform="translate(-426.97 -39)"/><rect class="cls-29" x="155.33" y="52.09" width="4.96" height="4.96" rx="1.16"/><rect class="cls-28" x="164.51" y="52.09" width="4.96" height="4.96" rx="1.16"/><rect class="cls-29" x="173.69" y="52.09" width="4.96" height="4.96" rx="1.16"/><rect class="cls-28" x="182.87" y="52.09" width="4.96" height="4.96" rx="1.16"/><rect class="cls-29" x="192.05" y="52.09" width="4.96" height="4.96" rx="1.16"/><rect class="cls-28" x="174.02" y="42.08" width="4.96" height="4.96" rx="1.16"/><rect class="cls-29" x="183.2" y="42.08" width="4.96" height="4.96" rx="1.16"/><rect class="cls-28" x="192.38" y="42.08" width="4.96" height="4.96" rx="1.16"/><rect class="cls-29" x="380.51" y="270.37" width="4.96" height="4.96" rx="1.16"/><rect class="cls-28" x="389.69" y="270.37" width="4.96" height="4.96" rx="1.16"/><rect class="cls-29" x="398.87" y="270.37" width="4.96" height="4.96" rx="1.16"/><rect class="cls-28" x="408.05" y="270.37" width="4.96" height="4.96" rx="1.16"/><rect class="cls-29" x="417.23" y="270.37" width="4.96" height="4.96" rx="1.16"/><rect class="cls-28" x="399.2" y="260.36" width="4.96" height="4.96" rx="1.16"/><rect class="cls-29" x="408.38" y="260.36" width="4.96" height="4.96" rx="1.16"/><rect class="cls-28" x="417.57" y="260.36" width="4.96" height="4.96" rx="1.16"/><path class="cls-4" d="M471.77,123.3a2,2,0,1,0-2-2A2,2,0,0,0,471.77,123.3Z" transform="translate(-426.97 -39)"/><path class="cls-4" d="M566,217.35a2,2,0,1,0-2-2A2,2,0,0,0,566,217.35Z" transform="translate(-426.97 -39)"/><path class="cls-4" d="M838.82,217.3a2,2,0,1,0-2-2A2,2,0,0,0,838.82,217.3Z" transform="translate(-426.97 -39)"/><path class="cls-4" d="M792.48,334.37a2,2,0,1,0-2-2A2,2,0,0,0,792.48,334.37Z" transform="translate(-426.97 -39)"/><path class="cls-4" d="M489.5,314.35a2,2,0,1,0-2-2A2,2,0,0,0,489.5,314.35Z" transform="translate(-426.97 -39)"/><path class="cls-4" d="M570,354.59a2,2,0,1,0-2-2A2,2,0,0,0,570,354.59Z" transform="translate(-426.97 -39)"/><path class="cls-4" d="M888.82,391.68a2,2,0,1,0-2-2A2,2,0,0,0,888.82,391.68Z" transform="translate(-426.97 -39)"/><path class="cls-28" d="M547.58,460.34c3.22,0,3.22-5,0-5s-3.22,5,0,5Z" transform="translate(-426.97 -39)"/></svg>